<?xml version="1.0" encoding="utf-8"?>
<!-- Generator: Adobe Illustrator 19.0.0, SVG Export Plug-In . SVG Version: 6.00 Build 0)  -->
<svg version="1.1" id="Layer_1" xmlns="http://www.w3.org/2000/svg" xmlns:xlink="http://www.w3.org/1999/xlink" x="0px" y="0px"
	 viewBox="0 0 500 500" style="enable-background:new 0 0 500 500;" xml:space="preserve">
<style type="text/css">
	.st0{fill:#4CAF50;}
</style>
<g id="XMLID_1_">
	<path id="XMLID_11_" class="st0" d="M87,218.2c1.6-0.9,3.2-1.8,5-2.5c3.7-1.5,7.4-2.4,11.2-2.8l4.2,4.8l-1.9,4.9
		c-3.8,0.7-7.3,2.1-10.7,4.1l-0.7,0.4l-0.7-6.4L87,218.2z M85.2,219.3l6.6,2.6l0.7,6.4c-3.6,2.6-6.4,6-8.4,10.1
		c-0.2,0.3-0.3,0.7-0.5,1.1l-4.6-5.7l-7.6,1.6c1.9-4.1,4.4-7.8,7.7-11C80.9,222.5,83,220.8,85.2,219.3z M129,264
		c0.7-1.2,1.3-2.4,1.8-3.7l7.2,8.7l12.1-2.6c-0.7,1.9-1.5,3.8-2.4,5.6c-2.5,4.8-5.8,8.9-9.8,12.5c-4.1,3.6-8.8,6.2-14,7.8
		c-0.1,0-0.2,0-0.3,0.1l-8.9-7.6l2.3-10.3c0,0,0.1,0,0.2,0C122.1,272.4,126.1,268.8,129,264z M144.1,223.3c0.7,1,1.4,2.1,2.1,3.2
		c2.7,4.6,4.6,9.6,5.7,14.9c1,5.2,1.2,10.5,0.4,15.8c-0.3,2.5-0.9,5-1.7,7.4l-12.1,2.6l-7.2-8.7c0.9-3.2,0.9-6.5,0.2-10.1
		c-0.8-4.2-2.6-7.7-5.4-10.6l13-1.6L144.1,223.3z M70.5,237.3l7.8-1.7l4.6,5.6c-1.4,4.1-1.7,8.2-1,12.6c0.2,1.2,0.5,2.4,0.8,3.6
		l-8.2-1.9l-5.9,6.9c-0.7-3.1-1.1-6.3-1.1-9.5c0-5.4,1-10.6,3-15.6C70.5,237.4,70.5,237.4,70.5,237.3z M83.3,259.4
		c1.2,3.1,2.9,6,5.2,8.6c1.8,2,3.7,3.6,5.8,4.9l-8.2,4.7l0.4,10.7c-2.7-1.7-5.2-3.7-7.4-6c-3.8-3.9-6.7-8.4-8.7-13.4
		c-0.5-1.4-1-2.8-1.4-4.2l6-7.1L83.3,259.4z M96.1,273.8c1.8,0.9,3.6,1.6,5.6,2c4.5,1,8.8,0.9,13.1-0.5l-2.3,10.2l8.8,7.5
		c-4.4,1.2-8.9,1.7-13.6,1.5c-5.4-0.2-10.6-1.3-15.5-3.4c-1.3-0.6-2.6-1.2-3.9-1.9l-0.4-10.7L96.1,273.8z M142.8,221.7l-4.9,12.9
		l-13.4,1.6c-0.4-0.3-0.8-0.7-1.2-1c-4.4-3.3-9.3-5.3-14.9-5.8c-1.3-0.1-2.5-0.1-3.7-0.1l4.7-12l-10.1-11.5c3-0.2,6.1-0.3,9.1-0.2
		c1.8,0,3.6,0.2,5.4,0.4c2.5,0.3,5,0.8,7.5,1.5c5.2,1.5,10,3.9,14.3,7.1C138.3,216.7,140.7,219,142.8,221.7z"/>
	<path id="XMLID_24_" class="st0" d="M187.4,254.2h-9.5l-2.4,12.1h10.9l-1.4,7.2h-19l8.3-43.5h18.2l-1.4,7.1h-10l-2.1,10.3h9.7
		L187.4,254.2z M194.6,273.4l-1.4-43.5h9l-0.6,22c-0.1,4-0.4,9-0.6,12.3h0.1c0.9-3.4,2.4-8.5,3.8-12.3l7.8-22h8.9l-18.2,43.5H194.6z
		 M236.3,254.2h-9.5l-2.4,12.1h11l-1.4,7.2h-19l8.3-43.5h18.2l-1.5,7.1h-10l-2.1,10.3h9.7L236.3,254.2z M238,273.4l8.3-43.5h7.4
		l3.4,17.3c1.1,5.7,1.8,9.9,2.1,13.5h0.1c0.6-4.8,1.4-12.3,2.7-19.5l2.1-11.3h7l-8.3,43.5H256l-3.5-16.2c-1.4-6.1-1.8-9-2.2-14.5
		h-0.1c-0.6,4.4-1.6,11.5-3,19.1l-2.2,11.5H238z M278.7,237.6h-7.6l1.5-7.6h23.2l-1.5,7.6h-7.6l-6.8,35.9h-8.1L278.7,237.6z
		 M300.7,265.2c1.4,0.8,3.7,1.5,6,1.5c3.7,0.1,6.3-2.1,6.3-5.6c0-2.9-1.6-4.6-4.3-7.3c-3.4-3.2-5.2-6.7-5.2-10.5
		c0-8.1,5.7-13.7,14.2-13.7c3.4,0,5.5,0.7,6.5,1.4l-2.2,7c-1.3-0.7-2.7-1.2-4.7-1.2c-3.4,0-5.8,2.2-5.8,5.6c0,2.1,0.8,3.7,4.3,6.8
		c3.6,3.2,5.2,7,5.2,10.5c0,9-6,14.3-14.3,14.3c-4.3,0-7.1-1-8.1-1.6L300.7,265.2z M331.9,237.6h-7.6l1.5-7.6H349l-1.5,7.6h-7.6
		l-6.8,35.9H325L331.9,237.6z M372.9,243.2c0,9.2-3,20.9-8.8,26.6c-2.7,2.7-5.8,4.2-9.6,4.2c-9.4,0-10.7-9.4-10.7-14.2
		c0-8.8,3-20.5,9-26.3c2.6-2.5,5.8-4,9.5-4C371.8,229.5,372.9,238.1,372.9,243.2z M358.3,237.9c-4,4.1-6.3,16.2-6.3,22.7
		c0,2.4,0.3,6.3,3.7,6.3c0.9,0,1.9-0.4,2.6-1.3c4.3-4.3,6.2-18.3,6.2-23c0-2.8-0.4-6.1-3.4-6.1C360.2,236.5,359.2,237,358.3,237.9z
		 M379.9,230.5c2.7-0.4,5.8-0.8,8.6-0.8c3.8,0,7.4,0.7,9.6,3c1.8,1.8,2.8,4.3,2.8,7.2c0,6.4-3.9,11.5-8.8,13.1v0.1
		c2.4,1.1,3.4,3.6,3.6,8.5c0.1,4.8,0.2,10.2,0.7,11.8h-8.1c-0.2-1.2-0.3-5.6-0.3-10.4c0-5.3-1.1-7-3.8-7h-1.4l-3.2,17.4h-7.9
		L379.9,230.5z M384.1,249.8h1.9c4.1,0,6.8-4.3,6.8-8.9c0-2.3-1-4.8-4-4.8c-0.8,0-1.6,0-2.1,0.2L384.1,249.8z M420.6,254.2h-9.5
		l-2.4,12.1h10.9l-1.4,7.2h-19l8.3-43.5h18.2l-1.4,7.1h-10l-2.1,10.3h9.7L420.6,254.2z"/>
	<path id="XMLID_29_" class="st0" d="M431.6,272.5c-0.6,0.6-1.4,0.9-2.3,0.9c-0.9,0-1.7-0.3-2.4-1c-0.6-0.6-1-1.4-1-2.4
		s0.3-1.8,1-2.4c0.6-0.6,1.4-0.9,2.3-0.9c0.9,0,1.7,0.3,2.3,1c0.6,0.6,1,1.4,1,2.3C432.6,271,432.2,271.9,431.6,272.5z M427.3,268.1
		c-0.5,0.5-0.8,1.2-0.8,2c0,0.8,0.3,1.4,0.8,2c0.5,0.5,1.2,0.8,2,0.8c0.8,0,1.4-0.3,2-0.8c0.5-0.5,0.8-1.2,0.8-2s-0.2-1.4-0.8-2
		c-0.5-0.5-1.2-0.8-2-0.8C428.4,267.3,427.8,267.6,427.3,268.1z M427.7,272v-3.7h1.8c0.3,0,0.5,0.1,0.7,0.2c0.3,0.2,0.5,0.5,0.5,0.9
		c0,0.3-0.1,0.5-0.2,0.7c-0.2,0.1-0.4,0.2-0.6,0.2c0.2,0,0.4,0.1,0.5,0.2c0.2,0.2,0.3,0.4,0.3,0.8v0.4c0,0,0,0,0,0.1l0,0.1h-0.9
		c0-0.1,0-0.3,0-0.5c0-0.2,0-0.4,0-0.4c0-0.1-0.1-0.2-0.3-0.3c0,0-0.2,0-0.3,0h-0.4v1.3H427.7z M429.5,269c-0.1,0-0.3-0.1-0.6-0.1
		h-0.2v1.1h0.4c0.2,0,0.4,0,0.5-0.1c0.1-0.1,0.2-0.2,0.2-0.4C429.8,269.2,429.7,269.1,429.5,269z"/>
</g>
</svg>
